<svg width="105" height="162" viewBox="0 0 105 162" fill="none" xmlns="http://www.w3.org/2000/svg">
<path d="M21.608 141.18V144.468H17.144V158.028H13.04V144.468H8.576V141.18H21.608ZM31.6357 158.196C30.0517 158.196 28.5957 157.828 27.2677 157.092C25.9557 156.356 24.9077 155.332 24.1237 154.02C23.3557 152.692 22.9717 151.204 22.9717 149.556C22.9717 147.908 23.3557 146.428 24.1237 145.116C24.9077 143.804 25.9557 142.78 27.2677 142.044C28.5957 141.308 30.0517 140.94 31.6357 140.94C33.2197 140.94 34.6677 141.308 35.9797 142.044C37.3077 142.78 38.3477 143.804 39.0997 145.116C39.8677 146.428 40.2517 147.908 40.2517 149.556C40.2517 151.204 39.8677 152.692 39.0997 154.02C38.3317 155.332 37.2917 156.356 35.9797 157.092C34.6677 157.828 33.2197 158.196 31.6357 158.196ZM31.6357 154.452C32.9797 154.452 34.0517 154.004 34.8517 153.108C35.6677 152.212 36.0757 151.028 36.0757 149.556C36.0757 148.068 35.6677 146.884 34.8517 146.004C34.0517 145.108 32.9797 144.66 31.6357 144.66C30.2757 144.66 29.1877 145.1 28.3717 145.98C27.5717 146.86 27.1717 148.052 27.1717 149.556C27.1717 151.044 27.5717 152.236 28.3717 153.132C29.1877 154.012 30.2757 154.452 31.6357 154.452ZM48.8469 141.18C50.6229 141.18 52.1749 141.532 53.5029 142.236C54.8309 142.94 55.8549 143.932 56.5749 145.212C57.3109 146.476 57.6789 147.94 57.6789 149.604C57.6789 151.252 57.3109 152.716 56.5749 153.996C55.8549 155.276 54.8229 156.268 53.4789 156.972C52.1509 157.676 50.6069 158.028 48.8469 158.028H42.5349V141.18H48.8469ZM48.5829 154.476C50.1349 154.476 51.3429 154.052 52.2069 153.204C53.0709 152.356 53.5029 151.156 53.5029 149.604C53.5029 148.052 53.0709 146.844 52.2069 145.98C51.3429 145.116 50.1349 144.684 48.5829 144.684H46.6389V154.476H48.5829ZM67.9404 158.196C66.3564 158.196 64.9004 157.828 63.5724 157.092C62.2604 156.356 61.2124 155.332 60.4284 154.02C59.6604 152.692 59.2764 151.204 59.2764 149.556C59.2764 147.908 59.6604 146.428 60.4284 145.116C61.2124 143.804 62.2604 142.78 63.5724 142.044C64.9004 141.308 66.3564 140.94 67.9404 140.94C69.5244 140.94 70.9724 141.308 72.2844 142.044C73.6124 142.78 74.6524 143.804 75.4044 145.116C76.1724 146.428 76.5564 147.908 76.5564 149.556C76.5564 151.204 76.1724 152.692 75.4044 154.02C74.6364 155.332 73.5964 156.356 72.2844 157.092C70.9724 157.828 69.5244 158.196 67.9404 158.196ZM67.9404 154.452C69.2844 154.452 70.3564 154.004 71.1564 153.108C71.9724 152.212 72.3804 151.028 72.3804 149.556C72.3804 148.068 71.9724 146.884 71.1564 146.004C70.3564 145.108 69.2844 144.66 67.9404 144.66C66.5804 144.66 65.4924 145.1 64.6764 145.98C63.8764 146.86 63.4764 148.052 63.4764 149.556C63.4764 151.044 63.8764 152.236 64.6764 153.132C65.4924 154.012 66.5804 154.452 67.9404 154.452ZM86.8076 158.196C85.2236 158.196 83.7676 157.828 82.4396 157.092C81.1276 156.356 80.0796 155.332 79.2956 154.02C78.5276 152.692 78.1436 151.204 78.1436 149.556C78.1436 147.908 78.5276 146.428 79.2956 145.116C80.0796 143.804 81.1276 142.78 82.4396 142.044C83.7676 141.308 85.2236 140.94 86.8076 140.94C88.3916 140.94 89.8396 141.308 91.1516 142.044C92.4796 142.78 93.5196 143.804 94.2716 145.116C95.0396 146.428 95.4236 147.908 95.4236 149.556C95.4236 151.204 95.0396 152.692 94.2716 154.02C93.5036 155.332 92.4636 156.356 91.1516 157.092C89.8396 157.828 88.3916 158.196 86.8076 158.196ZM86.8076 154.452C88.1516 154.452 89.2236 154.004 90.0236 153.108C90.8396 152.212 91.2476 151.028 91.2476 149.556C91.2476 148.068 90.8396 146.884 90.0236 146.004C89.2236 145.108 88.1516 144.66 86.8076 144.66C85.4476 144.66 84.3596 145.1 83.5436 145.98C82.7436 146.86 82.3436 148.052 82.3436 149.556C82.3436 151.044 82.7436 152.236 83.5436 153.132C84.3596 154.012 85.4476 154.452 86.8076 154.452Z" fill="black"/>
<rect width="82.637" height="28.5385" fill="#F2C94C"/>
<rect x="28.4613" y="122.813" width="94.2635" height="25.0185" transform="rotate(-90 28.4613 122.813)" fill="#F2C94C"/>
<path fill-rule="evenodd" clip-rule="evenodd" d="M72 68.0276H50V123.028H72V121.029C74.7793 122.318 77.8173 123.028 81 123.028C94.2548 123.028 105 110.715 105 95.5276C105 80.3398 94.2548 68.0276 81 68.0276C77.8173 68.0276 74.7793 68.7375 72 70.0266V68.0276Z" fill="#F2C94C"/>
</svg>
